<svg width="128" height="128" viewBox="0 0 128 128" fill="none" xmlns="http://www.w3.org/2000/svg">
<g clip-path="url(#clip0_22_30)">
<path d="M96.28 63.75C96.28 81.71 81.72 96.27 63.75 96.27C45.78 96.27 31.23 81.71 31.23 63.75C31.23 45.79 45.79 31.23 63.75 31.23C81.71 31.23 96.28 45.79 96.28 63.75Z" fill="#C94122"/>
<path d="M64.2899 26.79C64.2899 26.79 64.4499 26.73 64.7399 26.6C65.0099 26.47 65.5199 26.37 65.9599 26.05C66.1899 25.9 66.4299 25.77 66.6699 25.58C66.8999 25.35 67.1599 25.14 67.4099 24.91C67.6399 24.65 67.8599 24.34 68.0899 24.06C68.2899 23.74 68.4599 23.39 68.6399 23.05C68.8899 22.3 69.1199 21.52 69.0399 20.69L69.0199 20.38V20.23V20.15C69.0199 19.97 69.0299 20.38 69.0199 20.33V20.29V20.24C68.9499 19.96 68.8999 19.67 68.8399 19.38C68.8099 19.25 68.7899 19.06 68.7399 18.98C68.6899 18.91 68.6499 18.84 68.6099 18.77C68.5199 18.63 68.4899 18.5 68.3899 18.33C67.9599 17.61 67.3399 17.04 66.6599 16.58C65.9299 16.18 65.1299 15.98 64.2999 15.94L63.9899 15.92H63.9299L63.8099 15.9L63.5699 15.87L63.0799 15.82L62.8399 15.79H62.7199L62.5399 15.73L61.8099 15.53C60.7699 15.28 60.0699 14.79 59.3199 14.35C57.9199 13.32 56.8499 11.93 56.2599 10.42C55.7399 8.89998 55.5599 7.27998 55.9099 5.91998C55.9799 5.45998 56.2699 4.62998 56.5599 3.97998C56.6899 3.62998 56.8899 3.38998 57.0699 3.11998C57.2499 2.85998 57.4299 2.60998 57.6099 2.37998C58.0399 1.95998 58.4399 1.55998 58.8599 1.24998C59.3199 0.97998 59.7299 0.69998 60.1499 0.51998C60.5899 0.36998 60.9899 0.22998 61.3599 0.12998C61.7399 0.0599805 62.0999 0.0499805 62.4099 0.00998047C62.5599 -1.95317e-05 62.7099 -0.0100195 62.8399 -0.0200195C62.9799 -0.0200195 63.1099 0.00998047 63.2299 0.0299805C63.4599 0.0699805 63.6599 0.0999805 63.8299 0.11998C64.1399 0.17998 64.3099 0.20998 64.3099 0.20998C64.3099 0.20998 64.1499 0.26998 63.8499 0.39998C63.5599 0.53998 63.1299 0.61998 62.6699 0.94998C62.4399 1.09998 62.1799 1.22998 61.9299 1.41998C61.6999 1.64998 61.4399 1.85998 61.1899 2.08998C60.9599 2.34998 60.7399 2.65998 60.5099 2.93998C60.3199 3.25998 60.1399 3.60998 59.9599 3.94998C59.8799 4.32998 59.6599 4.71998 59.6499 5.06998C59.6399 5.41998 59.5199 5.61998 59.5699 6.28998C59.5299 7.15998 59.8799 7.92998 60.2199 8.66998C60.6499 9.38998 61.2699 9.95998 61.9499 10.42C62.3299 10.58 62.7299 10.8 62.9699 10.84C63.0399 10.86 63.0999 10.89 63.1699 10.93L63.2199 10.96H63.3399L63.5799 10.99L64.0599 11.03L64.2999 11.05H64.4199L64.4799 11.07H64.5099H64.5199C64.4199 11.07 64.7699 11.08 64.2899 11.06C66.0599 11.12 67.8299 11.64 69.2699 12.64C70.6699 13.67 71.7399 15.05 72.3199 16.57C72.4799 16.95 72.5699 17.43 72.6799 17.85L72.8099 18.49C72.8399 18.7 72.8099 18.8 72.8299 18.96C72.8299 19.26 72.8299 19.55 72.8299 19.84V20.14L72.8199 20.28L72.7699 20.55L72.6699 21.08C72.4299 22.5 71.7099 23.67 70.9799 24.6C70.5499 25.02 70.1499 25.42 69.7299 25.73C69.2699 26 68.8599 26.28 68.4399 26.46C67.9999 26.61 67.5999 26.75 67.2299 26.85C66.8399 26.93 66.4599 26.94 66.1499 26.97C65.9999 26.98 65.8499 26.99 65.7099 27C65.5799 27 65.4599 26.96 65.3399 26.95C65.1099 26.91 64.9199 26.88 64.7699 26.85C64.4599 26.79 64.2899 26.76 64.2899 26.76V26.79Z" fill="#C94122"/>
<path d="M45.7401 31.48C45.7401 31.48 45.8401 31.34 46.0401 31.09C46.2101 30.84 46.6001 30.5 46.8101 30C46.9301 29.76 47.0801 29.52 47.1901 29.24C47.2801 28.93 47.3901 28.61 47.5001 28.29C47.5701 27.95 47.6001 27.58 47.6701 27.21C47.6701 26.83 47.6501 26.44 47.6401 26.06C47.4801 25.28 47.2901 24.49 46.8001 23.81L46.6301 23.55L46.5501 23.42L46.5101 23.35C46.4101 23.2 46.6301 23.54 46.6101 23.5L46.5901 23.47L46.5501 23.43C46.3601 23.21 46.1701 22.99 45.9701 22.77C45.8701 22.67 45.7701 22.51 45.6801 22.47C45.6001 22.43 45.5301 22.39 45.4601 22.35C45.3101 22.27 45.2201 22.17 45.0501 22.08C44.3201 21.68 43.5001 21.48 42.6801 21.43C41.8501 21.45 41.0501 21.68 40.3101 22.06L40.0401 22.2L39.9901 22.22L39.8801 22.27L39.6601 22.37L39.2101 22.57L38.9901 22.67L38.8801 22.72L38.7001 22.77L37.9701 22.96C36.9401 23.26 36.1001 23.19 35.2301 23.19C33.5001 23 31.8801 22.33 30.6101 21.31C29.4001 20.25 28.4401 18.94 28.0601 17.59C27.8901 17.15 27.7301 16.29 27.6501 15.58C27.5901 15.21 27.6501 14.9 27.6601 14.58C27.6901 14.27 27.7101 13.96 27.7501 13.67C27.9201 13.09 28.0601 12.55 28.2701 12.06C28.5301 11.59 28.7501 11.15 29.0201 10.78C29.3301 10.43 29.6001 10.11 29.8701 9.84C30.1601 9.59 30.4701 9.4 30.7201 9.22C30.8501 9.13 30.9701 9.05 31.0801 8.97C31.2001 8.9 31.3301 8.86 31.4401 8.82C31.6601 8.74 31.8501 8.66 32.0001 8.6C32.3001 8.5 32.4601 8.44 32.4601 8.44C32.4601 8.44 32.3601 8.58 32.1601 8.83C31.9801 9.09 31.6501 9.38 31.4101 9.89C31.2901 10.14 31.1301 10.38 31.0001 10.67C30.9101 10.98 30.8001 11.3 30.6901 11.62C30.6201 11.96 30.5801 12.33 30.5301 12.69C30.5301 13.07 30.5501 13.46 30.5601 13.84C30.6801 14.21 30.6901 14.66 30.8501 14.96C31.0201 15.27 31.0201 15.5 31.3901 16.06C31.7901 16.83 32.4801 17.33 33.1401 17.79C33.8701 18.2 34.6901 18.38 35.5101 18.44C35.9201 18.39 36.3801 18.38 36.6001 18.29C36.6701 18.28 36.7401 18.27 36.8201 18.27H36.8801L36.9901 18.22L37.2101 18.12L37.6501 17.91L37.8701 17.81L37.9801 17.76L38.0401 17.73H38.0701L38.0801 17.71C37.9901 17.76 38.3101 17.59 37.8801 17.82C39.4501 16.99 41.2401 16.56 42.9801 16.7C44.7101 16.89 46.3301 17.56 47.5901 18.58C47.9201 18.83 48.2401 19.2 48.5401 19.51L48.9801 20C49.1101 20.16 49.1401 20.27 49.2301 20.4C49.3801 20.66 49.5201 20.91 49.6701 21.16L49.8301 21.42L49.8801 21.55L49.9801 21.81L50.1601 22.32C50.6601 23.67 50.6201 25.05 50.4501 26.21C50.2801 26.79 50.1401 27.33 49.9301 27.81C49.6701 28.28 49.4501 28.72 49.1801 29.09C48.8701 29.44 48.6001 29.76 48.3301 30.03C48.0301 30.29 47.7101 30.49 47.4601 30.68C47.3301 30.77 47.2101 30.85 47.0901 30.93C46.9701 30.99 46.8501 31.02 46.7501 31.07C46.5301 31.15 46.3501 31.22 46.2001 31.27C45.9001 31.37 45.7401 31.43 45.7401 31.43V31.48Z" fill="#C94122"/>
<path d="M32.01 44.81C32.01 44.81 32.03 44.64 32.08 44.33C32.1 44.03 32.27 43.54 32.21 43C32.19 42.73 32.21 42.45 32.16 42.15C32.08 41.83 32.02 41.51 31.95 41.17C31.84 40.84 31.68 40.5 31.55 40.15C31.37 39.82 31.15 39.5 30.95 39.17C30.42 38.58 29.87 37.99 29.1 37.64L28.83 37.5L28.7 37.43L28.63 37.39C28.47 37.31 28.83 37.49 28.79 37.47H28.78L28.75 37.46L28.7 37.44C28.43 37.35 28.15 37.25 27.87 37.16C27.74 37.12 27.57 37.04 27.47 37.04C27.38 37.04 27.3 37.04 27.22 37.04C27.05 37.04 26.93 37 26.73 37.02C25.89 37.04 25.09 37.28 24.35 37.64C23.64 38.08 23.07 38.67 22.61 39.37L22.44 39.63L22.4 39.68L22.33 39.78L22.19 39.98L21.9 40.37L21.76 40.57L21.69 40.67L21.56 40.8L21.02 41.33C20.28 42.11 19.51 42.47 18.76 42.9C17.17 43.6 15.43 43.83 13.83 43.58C12.25 43.27 10.76 42.61 9.75995 41.64C9.38995 41.35 8.82995 40.68 8.40995 40.11C8.16995 39.82 8.05995 39.52 7.91995 39.24C7.78995 38.95 7.65995 38.68 7.53995 38.4C7.39995 37.82 7.24995 37.27 7.18995 36.75C7.18995 36.21 7.14995 35.72 7.19995 35.27C7.28995 34.81 7.36995 34.4 7.46995 34.03C7.59995 33.66 7.76995 33.35 7.88995 33.06C7.95995 32.92 8.01995 32.79 8.07995 32.67C8.14995 32.55 8.23995 32.45 8.31995 32.36C8.46995 32.18 8.59995 32.02 8.69995 31.89C8.90995 31.65 9.01995 31.52 9.01995 31.52C9.01995 31.52 8.99995 31.69 8.94995 32.01C8.91995 32.33 8.77995 32.74 8.82995 33.3C8.83995 33.57 8.82995 33.87 8.86995 34.18C8.94995 34.5 9.00995 34.82 9.07995 35.16C9.18995 35.49 9.34995 35.83 9.47995 36.17C9.65995 36.5 9.87995 36.82 10.08 37.15C10.37 37.41 10.6 37.79 10.89 37.98C11.19 38.17 11.3 38.37 11.91 38.66C12.64 39.12 13.48 39.22 14.29 39.28C15.12 39.27 15.93 39.02 16.67 38.66C17 38.41 17.39 38.18 17.54 37.99C17.59 37.94 17.65 37.9 17.72 37.86L17.77 37.83L17.84 37.73L17.98 37.53L18.26 37.13L18.4 36.93L18.47 36.83L18.5 36.78L18.52 36.76C18.47 36.84 18.66 36.53 18.4 36.94C19.34 35.43 20.68 34.17 22.26 33.42C23.85 32.72 25.59 32.49 27.19 32.74C27.6 32.8 28.06 32.95 28.48 33.07L29.1 33.28C29.29 33.35 29.38 33.43 29.52 33.5C29.77 33.65 30.03 33.79 30.28 33.94L30.55 34.08L30.66 34.17L30.87 34.35L31.28 34.7C32.39 35.61 33.04 36.83 33.48 37.92C33.62 38.5 33.77 39.05 33.83 39.57C33.83 40.11 33.87 40.6 33.82 41.05C33.73 41.51 33.65 41.92 33.55 42.29C33.42 42.67 33.25 43 33.12 43.29C33.05 43.43 32.99 43.56 32.93 43.69C32.86 43.8 32.77 43.89 32.7 43.98C32.55 44.16 32.43 44.31 32.33 44.43C32.12 44.67 32.01 44.8 32.01 44.8V44.81Z" fill="#C94122"/>
<path d="M26.79 63.21C26.79 63.21 26.73 63.05 26.61 62.76C26.48 62.49 26.38 61.98 26.06 61.54C25.91 61.31 25.78 61.07 25.6 60.83C25.37 60.6 25.16 60.34 24.93 60.08C24.67 59.85 24.36 59.63 24.08 59.4C23.76 59.21 23.41 59.03 23.07 58.85C22.32 58.6 21.54 58.37 20.71 58.45L20.4 58.47H20.25H20.17C20 58.47 20.4 58.46 20.35 58.47H20.34H20.31H20.26C19.98 58.54 19.69 58.59 19.4 58.65C19.27 58.68 19.08 58.7 19 58.75C18.93 58.8 18.86 58.84 18.79 58.88C18.65 58.97 18.52 59 18.35 59.1C17.63 59.53 17.06 60.15 16.6 60.83C16.2 61.56 16 62.36 15.96 63.19L15.94 63.5V63.56L15.92 63.68L15.89 63.92L15.83 64.4L15.8 64.64V64.76L15.74 64.94L15.54 65.67C15.29 66.71 14.81 67.41 14.37 68.16C13.34 69.57 11.95 70.63 10.44 71.22C8.92 71.74 7.3 71.92 5.94 71.57C5.48 71.5 4.65 71.21 4 70.92C3.65 70.79 3.41 70.59 3.14 70.41C2.88 70.23 2.63 70.06 2.4 69.87C1.98 69.44 1.58 69.04 1.27 68.62C1 68.16 0.72 67.75 0.54 67.33C0.39 66.89 0.25 66.49 0.15 66.12C0.08 65.74 0.07 65.38 0.03 65.07C0.02 64.92 0.01 64.77 0 64.64C0 64.5 0.03 64.37 0.05 64.25C0.09 64.02 0.12 63.82 0.15 63.66C0.21 63.35 0.24 63.18 0.24 63.18C0.24 63.18 0.31 63.34 0.43 63.64C0.57 63.93 0.66 64.36 0.98 64.82C1.13 65.05 1.26 65.31 1.45 65.56C1.68 65.79 1.89 66.05 2.12 66.3C2.38 66.53 2.69 66.75 2.97 66.98C3.29 67.17 3.64 67.35 3.98 67.53C4.36 67.61 4.75 67.83 5.1 67.84C5.46 67.85 5.66 67.97 6.32 67.92C7.19 67.96 7.96 67.61 8.7 67.27C9.41 66.84 9.99 66.22 10.45 65.54C10.61 65.16 10.83 64.76 10.87 64.52C10.9 64.45 10.92 64.39 10.96 64.32C10.96 64.3 10.98 64.29 10.99 64.27V64.15L11.02 63.91L11.06 63.42L11.08 63.18V63.06L11.1 63V62.97V62.95C11.1 63.05 11.12 62.7 11.1 63.18C11.16 61.4 11.68 59.64 12.68 58.2C13.71 56.8 15.1 55.73 16.61 55.15C16.99 54.99 17.47 54.9 17.89 54.79L18.53 54.66C18.74 54.63 18.84 54.65 19 54.64C19.3 54.64 19.59 54.64 19.88 54.64H20.18L20.32 54.65L20.59 54.7L21.12 54.8C22.54 55.04 23.71 55.77 24.64 56.49C25.05 56.92 25.46 57.32 25.77 57.74C26.04 58.2 26.32 58.61 26.5 59.03C26.65 59.47 26.79 59.87 26.89 60.24C26.97 60.63 26.98 61.01 27.01 61.32C27.02 61.48 27.03 61.62 27.04 61.76C27.04 61.89 27 62.01 26.99 62.13C26.95 62.36 26.92 62.55 26.9 62.7C26.84 63.01 26.81 63.18 26.81 63.18L26.79 63.21Z" fill="#C94122"/>
<path d="M31.4799 81.76C31.4799 81.76 31.3499 81.66 31.0899 81.46C30.8399 81.29 30.4999 80.9 29.9999 80.68C29.7599 80.56 29.5199 80.41 29.2399 80.3C28.9299 80.21 28.6099 80.1 28.2899 79.99C27.9499 79.92 27.5799 79.88 27.2099 79.82C26.8299 79.82 26.4399 79.84 26.0599 79.85C25.2799 80.01 24.4899 80.2 23.8099 80.69L23.5499 80.86L23.4199 80.94L23.3499 80.98C23.1999 81.08 23.5399 80.86 23.4999 80.88L23.4799 80.91L23.4399 80.95C23.2199 81.14 22.9999 81.33 22.7799 81.53C22.6799 81.62 22.5199 81.74 22.4799 81.82C22.4399 81.9 22.3999 81.97 22.3599 82.04C22.2799 82.19 22.1799 82.28 22.0899 82.45C21.6899 83.18 21.4999 84 21.4399 84.83C21.4699 85.66 21.6899 86.46 22.0699 87.2L22.2099 87.47L22.2299 87.53L22.2799 87.64L22.3799 87.86L22.5699 88.31L22.6699 88.53L22.7199 88.64L22.7699 88.82L22.9599 89.55C23.2599 90.58 23.1899 91.42 23.1899 92.29C22.9999 94.02 22.3299 95.64 21.3099 96.91C20.2499 98.12 18.9399 99.08 17.5899 99.46C17.1499 99.63 16.2899 99.79 15.5799 99.86C15.2099 99.92 14.8999 99.86 14.5799 99.85C14.2699 99.82 13.9599 99.8 13.6699 99.76C13.0899 99.59 12.5499 99.45 12.0599 99.24C11.5899 98.98 11.1499 98.76 10.7799 98.49C10.4299 98.18 10.1099 97.91 9.83994 97.64C9.58994 97.35 9.39994 97.04 9.21994 96.79C9.12994 96.66 9.04994 96.54 8.96994 96.43C8.89994 96.31 8.85994 96.18 8.81994 96.07C8.73994 95.85 8.65994 95.66 8.59994 95.51C8.49994 95.21 8.43994 95.05 8.43994 95.05C8.43994 95.05 8.57994 95.15 8.82994 95.35C9.08994 95.53 9.37994 95.86 9.88994 96.1C10.1399 96.22 10.3799 96.38 10.6699 96.5C10.9799 96.59 11.2999 96.7 11.6199 96.81C11.9599 96.88 12.3399 96.91 12.6999 96.97C13.0799 96.97 13.4699 96.95 13.8499 96.94C14.2199 96.82 14.6699 96.81 14.9699 96.65C15.2799 96.48 15.5099 96.48 16.0699 96.11C16.8399 95.71 17.3399 95.02 17.7999 94.36C18.2099 93.63 18.3899 92.81 18.4499 91.99C18.3999 91.58 18.3899 91.12 18.2999 90.9C18.2899 90.83 18.2799 90.76 18.2799 90.68V90.62L18.2299 90.51L18.1299 90.29L17.9299 89.85L17.8299 89.63L17.7799 89.52L17.7499 89.46V89.43L17.7299 89.42C17.7799 89.51 17.6199 89.19 17.8399 89.62C17.0099 88.05 16.5799 86.26 16.7199 84.52C16.9099 82.79 17.5799 81.17 18.5999 79.91C18.8499 79.58 19.2199 79.26 19.5299 78.96L20.0199 78.52C20.1799 78.39 20.2899 78.36 20.4199 78.27C20.6699 78.12 20.9299 77.98 21.1799 77.83L21.4399 77.67L21.5699 77.62L21.8299 77.52L22.3399 77.34C23.6899 76.84 25.0699 76.88 26.2299 77.05C26.8099 77.22 27.3499 77.36 27.8299 77.57C28.2999 77.83 28.7399 78.05 29.1099 78.32C29.4599 78.63 29.7799 78.9 30.0499 79.17C30.3099 79.47 30.5099 79.79 30.6999 80.04C30.7899 80.17 30.8699 80.29 30.9499 80.4C31.0099 80.52 31.0399 80.64 31.0899 80.74C31.1699 80.96 31.2399 81.14 31.2899 81.29C31.3899 81.59 31.4499 81.75 31.4499 81.75L31.4799 81.76Z" fill="#C94122"/>
<path d="M44.81 95.4899C44.81 95.4899 44.64 95.4699 44.33 95.4299C44.03 95.4099 43.54 95.2399 43 95.2999C42.73 95.3199 42.45 95.2999 42.15 95.3499C41.83 95.4299 41.51 95.4899 41.17 95.5599C40.84 95.6699 40.5 95.8299 40.16 95.9499C39.83 96.1299 39.51 96.3499 39.18 96.5499C38.59 97.0799 38 97.6299 37.65 98.3999L37.51 98.6699L37.43 98.7999L37.39 98.8699C37.31 99.0299 37.5 98.6699 37.47 98.7099V98.7499L37.45 98.7999C37.36 99.0699 37.27 99.3499 37.17 99.6299C37.13 99.7599 37.05 99.9299 37.05 100.03C37.05 100.12 37.05 100.2 37.05 100.28C37.05 100.45 37.02 100.57 37.03 100.77C37.05 101.61 37.29 102.41 37.65 103.15C38.09 103.86 38.68 104.44 39.38 104.89L39.63 105.06L39.68 105.1L39.78 105.17L39.98 105.31L40.37 105.6L40.57 105.74L40.67 105.81L40.8 105.94L41.33 106.48C42.1 107.22 42.47 107.99 42.9 108.74C43.6 110.33 43.83 112.07 43.58 113.68C43.27 115.26 42.61 116.75 41.64 117.75C41.35 118.12 40.68 118.68 40.11 119.1C39.82 119.34 39.53 119.45 39.24 119.59C38.95 119.72 38.68 119.85 38.41 119.97C37.83 120.11 37.28 120.26 36.76 120.32C36.22 120.32 35.73 120.36 35.28 120.31C34.82 120.22 34.41 120.14 34.04 120.04C33.67 119.91 33.36 119.74 33.07 119.62C32.93 119.55 32.8 119.49 32.68 119.43C32.56 119.36 32.46 119.27 32.37 119.2C32.19 119.05 32.03 118.92 31.9 118.82C31.66 118.61 31.53 118.5 31.53 118.5C31.53 118.5 31.7 118.52 32.02 118.57C32.34 118.6 32.75 118.74 33.31 118.69C33.59 118.68 33.88 118.69 34.19 118.65C34.51 118.57 34.83 118.51 35.17 118.44C35.5 118.33 35.84 118.17 36.18 118.04C36.51 117.86 36.83 117.64 37.16 117.44C37.42 117.15 37.8 116.92 37.99 116.63C38.18 116.33 38.38 116.21 38.67 115.61C39.14 114.88 39.22 114.04 39.29 113.23C39.28 112.4 39.03 111.59 38.67 110.85C38.42 110.52 38.19 110.13 38 109.98C37.95 109.93 37.91 109.87 37.87 109.8C37.86 109.78 37.85 109.77 37.84 109.75L37.74 109.68L37.54 109.54L37.14 109.26L36.94 109.12L36.84 109.05L36.79 109.01L36.77 108.99H36.76C36.85 109.04 36.55 108.84 36.95 109.11C35.44 108.17 34.18 106.83 33.43 105.25C32.73 103.66 32.5 101.92 32.75 100.32C32.81 99.9099 32.96 99.4499 33.08 99.0299L33.29 98.4099C33.36 98.2199 33.44 98.1299 33.51 97.9899C33.66 97.7299 33.8 97.4799 33.95 97.2299L34.09 96.9599L34.18 96.8499L34.36 96.6399L34.71 96.2299C35.63 95.1199 36.84 94.4699 37.93 94.0299C38.51 93.8899 39.06 93.7399 39.58 93.6799C40.12 93.6799 40.61 93.6399 41.06 93.6899C41.52 93.7799 41.93 93.8599 42.3 93.9599C42.68 94.0899 43.01 94.2599 43.3 94.3899C43.44 94.4599 43.57 94.5199 43.7 94.5799C43.81 94.6499 43.9 94.7399 43.99 94.8099C44.17 94.9599 44.32 95.0799 44.44 95.1799C44.68 95.3899 44.81 95.4999 44.81 95.4999V95.4899Z" fill="#C94122"/>
<path d="M63.2199 100.71C63.2199 100.71 63.0599 100.77 62.7699 100.9C62.4999 101.03 61.9899 101.13 61.5599 101.45C61.3299 101.6 61.0899 101.73 60.8499 101.92C60.6199 102.15 60.3599 102.36 60.1099 102.59C59.8799 102.85 59.6599 103.16 59.4299 103.44C59.2299 103.76 59.0599 104.11 58.8799 104.45C58.6299 105.2 58.3999 105.98 58.4799 106.81L58.4999 107.12V107.35C58.4999 107.27 58.4999 107.55 58.4999 107.17V107.21V107.26C58.5699 107.54 58.6199 107.83 58.6799 108.12C58.7099 108.25 58.7299 108.44 58.7799 108.52C58.8299 108.59 58.8699 108.66 58.9099 108.73C58.9999 108.87 59.0299 109 59.1299 109.17C59.5599 109.89 60.1699 110.46 60.8599 110.92C61.5899 111.32 62.3899 111.52 63.2199 111.56L63.5299 111.58H63.5899L63.7099 111.6L63.9499 111.63L64.4299 111.69L64.6699 111.72H64.7899L64.9699 111.78L65.6999 111.98C66.7399 112.23 67.4399 112.71 68.1899 113.15C69.5899 114.18 70.6599 115.57 71.2499 117.08C71.7699 118.6 71.9499 120.22 71.5999 121.58C71.5299 122.04 71.2399 122.87 70.9499 123.52C70.8199 123.87 70.6199 124.11 70.4399 124.38C70.2599 124.64 70.0799 124.89 69.8999 125.12C69.4699 125.54 69.0699 125.94 68.6499 126.25C68.1899 126.52 67.7799 126.8 67.3599 126.98C66.9199 127.13 66.5199 127.27 66.1499 127.37C65.7699 127.44 65.4099 127.45 65.0999 127.49C64.9499 127.5 64.7999 127.51 64.6699 127.52C64.5299 127.52 64.3999 127.49 64.2799 127.47C64.0499 127.43 63.8499 127.4 63.6799 127.38C63.3699 127.32 63.1999 127.29 63.1999 127.29C63.1999 127.29 63.3599 127.23 63.6599 127.1C63.9499 126.96 64.3799 126.88 64.8399 126.55C65.0699 126.4 65.3299 126.27 65.5799 126.08C65.8099 125.85 66.0699 125.64 66.3199 125.41C66.5499 125.15 66.7699 124.84 66.9999 124.56C67.1899 124.24 67.3699 123.89 67.5499 123.55C67.6299 123.17 67.8499 122.78 67.8599 122.43C67.8699 122.08 67.9899 121.88 67.9399 121.21C67.9799 120.34 67.6299 119.57 67.2899 118.83C66.8599 118.11 66.2399 117.54 65.5599 117.08C65.1799 116.92 64.7799 116.7 64.5399 116.66C64.4699 116.63 64.4099 116.6 64.3399 116.57C64.3199 116.57 64.3099 116.55 64.2899 116.54H64.1699L63.9299 116.51L63.4499 116.47L63.2099 116.45H63.0899L63.0299 116.43H62.9999H62.9799C63.0899 116.43 62.7299 116.42 63.2099 116.44C61.4399 116.38 59.6699 115.86 58.2299 114.86C56.8299 113.83 55.7599 112.44 55.1799 110.93C55.0199 110.55 54.9299 110.07 54.8199 109.65L54.6899 109.01C54.6599 108.81 54.6899 108.7 54.6699 108.54V107.36L54.6799 107.22L54.7199 106.95L54.8199 106.42C55.0599 105 55.7899 103.83 56.5099 102.9C56.9399 102.49 57.3399 102.08 57.7599 101.77C58.2199 101.5 58.6299 101.22 59.0499 101.04C59.4899 100.89 59.8899 100.75 60.2599 100.65C60.6499 100.57 61.0299 100.56 61.3399 100.53C61.4999 100.52 61.6399 100.51 61.7799 100.5C61.9099 100.5 62.0299 100.54 62.1499 100.55C62.3799 100.59 62.5699 100.62 62.7199 100.64C63.0299 100.7 63.1999 100.73 63.1999 100.73L63.2199 100.71Z" fill="#C94122"/>
<path d="M81.7699 96.02C81.7699 96.02 81.6699 96.15 81.4699 96.41C81.2999 96.66 80.9099 97 80.6899 97.5C80.5699 97.74 80.4199 97.98 80.3099 98.26C80.2199 98.57 80.1099 98.89 79.9999 99.21C79.9299 99.55 79.8899 99.92 79.8299 100.29C79.8299 100.67 79.8499 101.06 79.8599 101.44C80.0199 102.21 80.2099 103.01 80.6999 103.69L80.8699 103.95L80.9499 104.08L80.9899 104.15C80.9499 104.08 81.0999 104.32 80.8899 104L80.9099 104.03L80.9499 104.07C81.1399 104.29 81.3299 104.5 81.5299 104.73C81.6299 104.83 81.7299 104.99 81.8199 105.03C81.8999 105.07 81.9699 105.11 82.0399 105.15C82.1899 105.23 82.2799 105.33 82.4499 105.41C83.1799 105.81 83.9999 106.01 84.8199 106.06C85.6499 106.03 86.4499 105.81 87.1899 105.43L87.4699 105.29L87.5199 105.27L87.6299 105.22L87.8499 105.12L88.2999 104.92L88.5199 104.82L88.6299 104.77L88.8099 104.72L89.5399 104.53C90.5699 104.23 91.4099 104.3 92.2899 104.3C94.0199 104.49 95.6399 105.16 96.8999 106.18C98.1099 107.24 99.0699 108.55 99.4499 109.9C99.6199 110.34 99.7799 111.2 99.8599 111.91C99.9199 112.28 99.8599 112.59 99.8499 112.91C99.8199 113.22 99.7999 113.53 99.7599 113.82C99.5999 114.4 99.4499 114.94 99.2399 115.43C98.9799 115.9 98.7599 116.34 98.4899 116.71C98.1799 117.06 97.9099 117.38 97.6399 117.65C97.3499 117.9 97.0399 118.09 96.7899 118.27C96.6599 118.36 96.5399 118.44 96.4299 118.52C96.3099 118.59 96.1799 118.63 96.0699 118.67C95.8499 118.75 95.6599 118.83 95.5099 118.89C95.2099 118.99 95.0499 119.05 95.0499 119.05C95.0499 119.05 95.1499 118.91 95.3499 118.66C95.5299 118.4 95.8599 118.11 96.0999 117.6C96.2199 117.35 96.3899 117.11 96.5099 116.82C96.5999 116.51 96.7099 116.19 96.8199 115.87C96.8899 115.53 96.9199 115.16 96.9799 114.79C96.9799 114.41 96.9599 114.02 96.9499 113.64C96.8299 113.27 96.8199 112.82 96.6599 112.52C96.4899 112.21 96.4999 111.98 96.1199 111.42C95.7199 110.65 95.0299 110.15 94.3699 109.69C93.6399 109.28 92.8199 109.1 91.9999 109.04C91.5899 109.09 91.1299 109.1 90.9099 109.19C90.8399 109.2 90.7699 109.21 90.6899 109.21C90.6699 109.21 90.6499 109.21 90.6299 109.21L90.5199 109.26L90.2999 109.36L89.8599 109.57L89.6399 109.67L89.5299 109.72L89.4699 109.75H89.4399L89.4199 109.77C89.5099 109.72 89.1899 109.89 89.6299 109.66C88.0599 110.49 86.2699 110.92 84.5299 110.78C82.7999 110.59 81.1799 109.92 79.9199 108.9C79.5899 108.65 79.2699 108.28 78.9699 107.97L78.5299 107.48C78.3999 107.32 78.3699 107.21 78.2799 107.08C78.1299 106.82 77.9899 106.57 77.8399 106.32L77.6799 106.06L77.6299 105.93L77.5299 105.67L77.3499 105.16C76.8499 103.81 76.8899 102.43 77.0599 101.27C77.2299 100.69 77.3699 100.15 77.5799 99.67C77.8399 99.2 78.0599 98.76 78.3299 98.39C78.6399 98.04 78.9099 97.72 79.1799 97.45C79.4799 97.19 79.7999 96.99 80.0499 96.8C80.1799 96.71 80.2999 96.63 80.4099 96.55C80.5299 96.49 80.6499 96.46 80.7499 96.41C80.9599 96.33 81.1499 96.26 81.2999 96.21C81.5999 96.11 81.7599 96.05 81.7599 96.05L81.7699 96.02Z" fill="#C94122"/>
<path d="M95.4899 82.6899C95.4899 82.6899 95.4699 82.8599 95.4299 83.1699C95.4099 83.4699 95.2399 83.9599 95.2999 84.4999C95.3199 84.7699 95.2999 85.0499 95.3499 85.3499C95.4299 85.6699 95.4899 85.9899 95.5599 86.3299C95.6699 86.6599 95.8299 86.9999 95.9499 87.3399C96.1299 87.6699 96.3499 87.9899 96.5499 88.3199C97.0799 88.9099 97.6299 89.4999 98.3999 89.8499L98.6799 89.9899L98.8099 90.0699L98.8799 90.1099C99.0399 90.1899 98.6799 90.0099 98.7199 90.0299H98.7299L98.7599 90.0399L98.8099 90.0599C99.0799 90.1499 99.3599 90.2499 99.6399 90.3399C99.7699 90.3799 99.9399 90.4599 100.04 90.4599C100.13 90.4599 100.21 90.4599 100.29 90.4599C100.46 90.4599 100.58 90.4999 100.78 90.4799C101.61 90.4599 102.42 90.2199 103.16 89.8599C103.87 89.4199 104.44 88.8299 104.9 88.1299L105.07 87.8699L105.11 87.8199L105.18 87.7199L105.33 87.5199L105.62 87.1299L105.76 86.9299L105.83 86.8299L105.96 86.6999L106.5 86.1699C107.24 85.3899 108 85.0299 108.76 84.5999C110.35 83.8999 112.09 83.6699 113.7 83.9199C115.28 84.2299 116.77 84.8899 117.77 85.8599C118.14 86.1499 118.7 86.8199 119.12 87.3899C119.36 87.6799 119.47 87.9699 119.61 88.2599C119.74 88.5499 119.87 88.8199 119.99 89.0999C120.13 89.6799 120.28 90.2299 120.34 90.7499C120.34 91.2899 120.38 91.7799 120.33 92.2299C120.24 92.6899 120.16 93.0999 120.06 93.4699C119.93 93.8399 119.76 94.1499 119.64 94.4299C119.57 94.5699 119.51 94.6999 119.45 94.8199C119.38 94.9399 119.29 95.0399 119.22 95.1299C119.07 95.3099 118.94 95.4699 118.84 95.5999C118.63 95.8399 118.52 95.9699 118.52 95.9699C118.52 95.9699 118.54 95.7999 118.59 95.4799C118.62 95.1599 118.76 94.7499 118.71 94.1899C118.69 93.9099 118.71 93.6199 118.67 93.3099C118.59 92.9899 118.53 92.6699 118.46 92.3299C118.35 91.9999 118.19 91.6599 118.06 91.3199C117.88 90.9899 117.66 90.6699 117.46 90.3399C117.17 90.0799 116.94 89.6999 116.65 89.5099C116.35 89.3199 116.23 89.1199 115.63 88.8299C114.9 88.3599 114.05 88.2699 113.25 88.2099C112.42 88.2199 111.61 88.4699 110.87 88.8299C110.54 89.0799 110.15 89.3099 110 89.4999C109.95 89.5499 109.89 89.5899 109.82 89.6299C109.8 89.6399 109.79 89.6499 109.77 89.6599L109.7 89.7599L109.56 89.9599L109.28 90.3599L109.14 90.5599L109.07 90.6599L109.03 90.7099L109.01 90.7299C109.07 90.6499 108.87 90.9599 109.13 90.5499C108.19 92.0599 106.86 93.3199 105.27 94.0699C103.68 94.7699 101.94 94.9999 100.34 94.7499C99.9299 94.6899 99.4699 94.5399 99.0499 94.4199L98.4299 94.2099C98.2399 94.1399 98.1499 94.0599 98.0099 93.9899C97.7499 93.8399 97.4999 93.6999 97.2499 93.5499L96.9799 93.4099L96.8699 93.3199L96.6599 93.1499L96.2499 92.7999C95.1399 91.8799 94.4899 90.6699 94.0499 89.5799C93.9099 88.9999 93.7599 88.4499 93.6999 87.9299C93.6999 87.3999 93.6599 86.8999 93.6999 86.4499C93.7899 85.9899 93.8699 85.5799 93.9699 85.2099C94.0999 84.8299 94.2699 84.4999 94.3999 84.2099C94.4699 84.0699 94.5299 83.9399 94.5899 83.8099C94.6599 83.6999 94.7499 83.6099 94.8199 83.5199C94.9699 83.3399 95.0899 83.1899 95.1899 83.0699C95.3999 82.8299 95.5099 82.6999 95.5099 82.6999L95.4899 82.6899Z" fill="#C94122"/>
<path d="M100.71 64.29C100.71 64.29 100.78 64.45 100.89 64.74C101.02 65.01 101.12 65.52 101.45 65.96C101.6 66.19 101.73 66.43 101.91 66.67C102.14 66.9 102.35 67.16 102.58 67.42C102.84 67.65 103.15 67.87 103.43 68.1C103.75 68.29 104.1 68.47 104.44 68.65C105.19 68.9 105.97 69.13 106.81 69.05L107.12 69.03H107.27H107.35C107.52 69.03 107.12 69.04 107.17 69.03H107.18H107.21H107.26C107.54 68.96 107.83 68.91 108.12 68.85C108.25 68.82 108.44 68.8 108.52 68.75C108.59 68.7 108.66 68.66 108.73 68.62C108.87 68.53 109 68.5 109.17 68.4C109.89 67.97 110.46 67.35 110.92 66.67C111.32 65.94 111.52 65.14 111.56 64.3L111.58 63.99V63.93L111.6 63.81L111.63 63.57L111.68 63.08L111.71 62.84V62.72L111.77 62.54L111.97 61.81C112.22 60.77 112.7 60.07 113.14 59.32C114.17 57.92 115.56 56.85 117.07 56.26C118.59 55.74 120.21 55.56 121.57 55.91C122.03 55.98 122.86 56.27 123.51 56.56C123.86 56.69 124.1 56.89 124.37 57.07C124.63 57.25 124.88 57.43 125.11 57.61C125.53 58.04 125.93 58.44 126.24 58.86C126.51 59.32 126.79 59.73 126.97 60.15C127.12 60.59 127.26 60.99 127.36 61.36C127.43 61.74 127.44 62.1 127.47 62.41C127.48 62.56 127.5 62.71 127.5 62.85C127.5 62.99 127.47 63.12 127.46 63.24C127.42 63.47 127.39 63.67 127.36 63.83C127.3 64.14 127.27 64.31 127.27 64.31C127.27 64.31 127.21 64.15 127.08 63.85C126.95 63.56 126.86 63.13 126.53 62.67C126.38 62.44 126.25 62.18 126.06 61.93C125.83 61.7 125.62 61.44 125.39 61.19C125.13 60.96 124.82 60.74 124.54 60.51C124.22 60.31 123.87 60.14 123.53 59.96C123.15 59.88 122.76 59.66 122.41 59.65C122.05 59.64 121.86 59.52 121.19 59.57C120.32 59.53 119.55 59.88 118.81 60.22C118.09 60.65 117.52 61.26 117.06 61.95C116.9 62.33 116.68 62.73 116.64 62.97C116.62 63.04 116.59 63.1 116.55 63.17L116.52 63.22V63.34L116.49 63.58L116.45 64.07L116.43 64.31V64.43L116.41 64.49V64.52V64.54C116.41 64.44 116.4 64.8 116.42 64.31C116.35 66.09 115.84 67.85 114.84 69.29C113.81 70.69 112.43 71.76 110.91 72.34C110.53 72.5 110.05 72.59 109.63 72.7L108.99 72.83C108.78 72.86 108.68 72.83 108.52 72.85C108.23 72.85 107.93 72.85 107.65 72.85H107.35L107.22 72.84L106.95 72.8L106.42 72.7C105 72.46 103.83 71.73 102.9 71.01C102.48 70.58 102.08 70.18 101.77 69.76C101.5 69.3 101.22 68.89 101.04 68.47C100.89 68.03 100.75 67.63 100.65 67.26C100.57 66.87 100.56 66.49 100.53 66.18C100.52 66.03 100.51 65.88 100.5 65.74C100.5 65.61 100.54 65.49 100.55 65.37C100.59 65.14 100.62 64.95 100.64 64.8C100.7 64.49 100.73 64.32 100.73 64.32L100.71 64.29Z" fill="#C94122"/>
<path d="M96.03 45.74C96.03 45.74 96.16 45.84 96.42 46.04C96.67 46.21 97.01 46.6 97.51 46.81C97.75 46.93 97.99 47.08 98.27 47.19C98.58 47.28 98.89 47.39 99.22 47.5C99.56 47.57 99.94 47.6 100.3 47.67C100.68 47.67 101.07 47.65 101.45 47.64C102.22 47.48 103.02 47.29 103.7 46.8L103.96 46.63L104.09 46.55L104.16 46.51C104.31 46.42 103.97 46.63 104.01 46.61L104.03 46.58L104.07 46.54C104.29 46.35 104.51 46.16 104.73 45.96C104.82 45.87 104.98 45.76 105.03 45.67C105.07 45.59 105.11 45.52 105.15 45.45C105.23 45.3 105.33 45.21 105.41 45.04C105.82 44.31 106.01 43.49 106.06 42.67C106.04 41.84 105.81 41.04 105.43 40.3L105.29 40.03L105.27 39.97L105.22 39.86L105.12 39.64L104.92 39.19L104.82 38.97L104.77 38.86L104.72 38.68L104.53 37.95C104.23 36.92 104.3 36.08 104.3 35.21C104.49 33.48 105.16 31.86 106.18 30.59C107.24 29.38 108.55 28.42 109.9 28.04C110.34 27.87 111.2 27.71 111.9 27.64C112.27 27.58 112.58 27.64 112.9 27.65C113.22 27.68 113.52 27.7 113.81 27.74C114.39 27.91 114.93 28.05 115.42 28.26C115.88 28.52 116.33 28.74 116.7 29.01C117.05 29.32 117.37 29.59 117.64 29.86C117.89 30.15 118.08 30.46 118.26 30.71C118.35 30.84 118.43 30.96 118.51 31.07C118.58 31.19 118.61 31.32 118.66 31.43C118.75 31.65 118.82 31.84 118.88 31.99C118.98 32.29 119.04 32.45 119.04 32.45C119.04 32.45 118.91 32.35 118.65 32.15C118.39 31.97 118.09 31.64 117.59 31.4C117.34 31.27 117.1 31.12 116.81 31C116.5 30.91 116.18 30.8 115.86 30.69C115.52 30.62 115.15 30.59 114.79 30.53C114.41 30.53 114.02 30.55 113.64 30.56C113.27 30.68 112.82 30.69 112.52 30.85C112.21 31.02 111.98 31.02 111.42 31.39C110.65 31.79 110.15 32.48 109.69 33.14C109.28 33.87 109.1 34.69 109.04 35.51C109.09 35.92 109.1 36.38 109.19 36.6C109.2 36.67 109.21 36.74 109.21 36.82V36.88L109.26 36.99L109.36 37.21L109.57 37.65L109.67 37.87L109.72 37.98L109.74 38.04V38.07L109.76 38.09C109.71 38 109.88 38.32 109.65 37.88C110.48 39.45 110.92 41.24 110.77 42.98C110.58 44.71 109.92 46.33 108.89 47.59C108.64 47.92 108.27 48.24 107.96 48.54L107.47 48.98C107.31 49.11 107.2 49.15 107.07 49.23C106.82 49.38 106.56 49.52 106.31 49.67L106.05 49.83L105.92 49.88L105.66 49.98L105.15 50.16C103.8 50.66 102.42 50.62 101.26 50.45C100.68 50.28 100.14 50.14 99.65 49.93C99.19 49.67 98.74 49.45 98.37 49.18C98.02 48.87 97.7 48.6 97.43 48.33C97.17 48.03 96.97 47.71 96.78 47.46C96.69 47.33 96.61 47.21 96.53 47.09C96.47 46.97 96.44 46.85 96.39 46.75C96.31 46.54 96.24 46.35 96.19 46.2C96.09 45.9 96.03 45.74 96.03 45.74Z" fill="#C94122"/>
<path d="M82.6999 32.01C82.6999 32.01 82.8699 32.03 83.1799 32.07C83.4799 32.09 83.9699 32.26 84.5099 32.2C84.7799 32.18 85.0599 32.2 85.3599 32.15C85.6799 32.07 86.0099 32.01 86.3399 31.94C86.6699 31.83 87.0099 31.67 87.3599 31.55C87.6899 31.37 88.0099 31.15 88.3399 30.95C88.9299 30.42 89.5199 29.87 89.8699 29.1L90.0099 28.83L90.0799 28.7L90.1199 28.63C90.1999 28.47 90.0199 28.83 90.0399 28.79V28.75L90.0599 28.7C90.1499 28.43 90.2399 28.15 90.3399 27.87C90.3799 27.74 90.4599 27.57 90.4599 27.47C90.4599 27.38 90.4599 27.3 90.4599 27.22C90.4599 27.05 90.4999 26.93 90.4799 26.73C90.4699 25.9 90.2199 25.09 89.8599 24.35C89.4199 23.64 88.8299 23.06 88.1299 22.61L87.8699 22.44L87.8199 22.4L87.7199 22.33L87.5199 22.18L87.1299 21.89L86.9299 21.74L86.8299 21.67L86.6999 21.54L86.1699 21C85.3899 20.26 85.0299 19.49 84.5999 18.74C83.8999 17.15 83.6699 15.41 83.9199 13.8C84.2299 12.22 84.8899 10.73 85.8599 9.72998C86.1499 9.35998 86.8199 8.79998 87.3999 8.37998C87.6899 8.13998 87.9799 8.02998 88.2699 7.88998C88.5599 7.75998 88.8299 7.62998 89.0999 7.50998C89.6799 7.36998 90.2299 7.21998 90.7499 7.15998C91.2899 7.15998 91.7799 7.11998 92.2299 7.16998C92.6899 7.25998 93.0999 7.33998 93.4699 7.43998C93.8399 7.56998 94.1499 7.73998 94.4299 7.85998C94.5699 7.92998 94.6999 7.98998 94.8199 8.04998C94.9399 8.11998 95.0399 8.20998 95.1299 8.27998C95.3099 8.42998 95.4699 8.55998 95.5999 8.65998C95.8399 8.86998 95.9699 8.97998 95.9699 8.97998C95.9699 8.97998 95.7999 8.95998 95.4799 8.90998C95.1599 8.87998 94.7499 8.73998 94.1899 8.78998C93.9199 8.79998 93.6199 8.78998 93.3099 8.82998C92.9899 8.90998 92.6699 8.96998 92.3299 9.03998C91.9999 9.14998 91.6599 9.30998 91.3199 9.43998C90.9899 9.61998 90.6699 9.83998 90.3399 10.04C90.0799 10.33 89.6999 10.56 89.5099 10.85C89.3199 11.15 89.1199 11.27 88.8299 11.87C88.3599 12.6 88.2699 13.45 88.1999 14.25C88.2099 15.08 88.4599 15.89 88.8199 16.63C89.0699 16.96 89.2999 17.35 89.4899 17.5C89.5399 17.56 89.5799 17.61 89.6199 17.68L89.6499 17.73L89.7499 17.8L89.9499 17.94L90.3499 18.22L90.5499 18.36L90.6499 18.43L90.6999 18.47L90.7199 18.49H90.7299C90.6399 18.44 90.9399 18.64 90.5399 18.38C92.0499 19.32 93.3099 20.65 94.0599 22.24C94.7599 23.83 94.9999 25.57 94.7399 27.17C94.6899 27.58 94.5299 28.04 94.4099 28.46L94.1999 29.08C94.1299 29.27 94.0499 29.36 93.9799 29.5C93.8299 29.76 93.6899 30.01 93.5399 30.26L93.3999 30.53L93.3099 30.64L93.1399 30.85L92.7799 31.26C91.8599 32.37 90.6499 33.02 89.5599 33.46C88.9799 33.6 88.4299 33.75 87.9099 33.81C87.3799 33.81 86.8799 33.85 86.4299 33.81C85.9699 33.72 85.5599 33.64 85.1899 33.54C84.8199 33.41 84.4799 33.24 84.1899 33.11C84.0499 33.04 83.9199 32.98 83.7899 32.92C83.6799 32.85 83.5899 32.76 83.4999 32.69C83.3199 32.54 83.1699 32.42 83.0499 32.32C82.8099 32.11 82.6799 32 82.6799 32L82.6999 32.01Z" fill="#C94122"/>
</g>
<defs>
<clipPath id="clip0_22_30">
<rect width="127.5" height="127.5" fill="white"/>
</clipPath>
</defs>
</svg>
